<?xml version="1.0" encoding="utf-8"?>
<svg xmlns="http://www.w3.org/2000/svg" width="108" height="108" viewBox="18 18 72 72">

	<defs>

		<linearGradient id="background">
			<stop stop-color="#00966E" />
		</linearGradient>
	</defs>

	<circle fill="url(#background)" cx="54" cy="54" r="36" />

	<path fill="transparent" stroke="white" stroke-width="3.2" d="
		M 58 36
		l 14 14
		a 7 7, 0, 0, 0, -14 -14
		a 7 7, 0, 0, 0, 14 14" />

	<path fill="white" fill-rule="nonzero" d="
		M 72 73.5
		l -4 2.5
		c -2.5 1.5, -13 3.5, -27 -13.5
		C 27.5 46, 31.5 37, 33.5 34.5
		L 36.5 31.5
		c 0.5 -0.5, 2 -0.5, 2.5 0
		l 8.5 10
		c 0.5 0.5, 0.5 2, 0 2.5
		l -3.5 2.5
		c -1.5 1.5, 0 3.5, 1.5 6
		l 7 8.5
		c 3.5 3, 5 4.5, 6.5 3.5
		l 3 -3.5
		c 0.5 -0.5, 2 -0.5, 2.5, 0
		l 8.5 10
		C 73 71.5, 73 73, 72 73.5
		Z" />
</svg>
