<?xml version="1.0" encoding="utf-8"?>
<svg xmlns="http://www.w3.org/2000/svg" width="108" height="108" viewBox="18 18 72 72">

	<defs>

		<clipPath id="clip-path">
			<circle cx="54" cy="54" r="36" />
		</clipPath>

		<linearGradient id="background">
			<stop stop-color="#008577" />
		</linearGradient>

		<linearGradient id="background-grid">
			<stop stop-color="white" stop-opacity="0.2" />
		</linearGradient>
	</defs>

	<circle fill="url(#background)" cx="54" cy="54" r="36" />

	<path clip-path="url(#clip-path)" stroke="url(#background-grid)" stroke-width="0.8" d="
		M 0 9
		H 108

		M 0 19
		H 108

		M 0 29
		H 108

		M 0 39
		H 108

		M 0 49
		H 108

		M 0 59
		H 108

		M 0 69
		H 108

		M 0 79
		H 108

		M 0 89
		H 108

		M 0 99
		H 108

		M 9 0
		V 108

		M 19 0
		V 108

		M 29 0
		V 108

		M 39 0
		V 108

		M 49 0
		V 108

		M 59 0
		V 108

		M 69 0
		V 108

		M 79 0
		V 108

		M 89 0
		V 108

		M 99 0
		V 108" />

	<path clip-path="url(#clip-path)" stroke="url(#background-grid)" stroke-width="0.8" d="
		M 19 29
		H 89

		M 19 39
		H 89

		M 19 49
		H 89

		M 19 59
		H 89

		M 19 69
		H 89

		M 19 79
		H 89

		M 29 19
		V 89

		M 39 19
		V 89

		M 49 19
		V 89

		M 59 19
		V 89

		M 69 19
		V 89

		M 79 19
		V 89" />

	<path fill="transparent" stroke="white" stroke-width="3.2" d="
		M 58 36
		l 14 14
		a 7 7, 0, 0, 0, -14 -14
		a 7 7, 0, 0, 0, 14 14" />

	<path fill="white" fill-rule="nonzero" d="
		M 71.966599 73.453461
		l -3.784209 2.497949
		c -2.436058 1.677643, -12.817205 3.563534, -26.940458 -13.545942
		C 27.626484 45.933159, 31.519764 36.798447, 33.346046 34.691879
		L 36.488518 31.425625
		c 0.740913 -0.631843, 1.858750 -0.557523, 2.495666 0.205710
		l 8.264689 9.776445
		c 0.604702 0.716309, 0.584918 1.831356, -0.210530 2.503022
		l -3.662711 2.641768
		c -1.449865 1.437436, -0.185926 3.699998, 1.296153 5.885703
		l 7.047929 8.321760
		c 3.278684 3.164796, 5.075290 4.626836, 6.644117 3.581036
		l 3.045834 -3.397647
		c 0.745986 -0.627024, 1.858750 -0.550168, 2.495666, 0.208247
		l 8.269762 9.776445
		C 72.781830 71.664207, 72.759506 72.776978, 71.966599 73.453461
		Z" />
</svg>
